<svg width="18" height="18" viewBox="0 0 18 18" fill="none" xmlns="http://www.w3.org/2000/svg">
<path d="M16.5902 15.8006L16.5899 15.8003L14.4894 13.6039C15.5988 12.2274 16.267 10.4511 16.267 8.51694C16.267 4.17433 12.8923 0.614294 8.70886 0.614294C4.52548 0.614294 1.15 4.17428 1.15 8.51694C1.15 12.8595 4.52544 16.4204 8.70886 16.4204C10.3801 16.4204 11.9252 15.8502 13.1759 14.889L15.2995 17.1079L15.3 17.1084C15.4754 17.291 15.709 17.3857 15.9447 17.3857C16.1801 17.3857 16.4157 17.2916 16.5917 17.1051C16.9374 16.742 16.9353 16.1622 16.5902 15.8006ZM2.96031 8.51694C2.96031 5.17123 5.55457 2.47767 8.70886 2.47767C11.8624 2.47767 14.4567 5.1712 14.4567 8.51694C14.4567 11.8627 11.8623 14.557 8.70886 14.557C5.55463 14.557 2.96031 11.8627 2.96031 8.51694Z" fill="white" stroke="white" stroke-width="0.7"/>
</svg>
